<mxfile host="app.diagrams.net" modified="2024-03-20T13:56:18.635Z" agent="Mozilla/5.0 (Windows NT 10.0; Win64; x64) AppleWebKit/537.36 (KHTML, like Gecko) Chrome/122.0.0.0 Safari/537.36" version="24.0.7" etag="KXCpZKAtvvOYccOobuEA" type="github">
  <diagram name="第 1 页" id="3UniWJ85LU6WcpTF5Opy">
    <mxGraphModel>
      <root>
        <mxCell id="0" />
        <mxCell id="1" parent="0" />
      </root>
    </mxGraphModel>
  </diagram>
</mxfile>
